  0
SECTION
  2
BLOCKS
  0
ENDSEC
  0
SECTION
  2
ENTITIES
  0
LINE
  8
0
 10
40.5434
 20
-64.7783
 11
41.1289
 21
-64.7089
  0
LINE
  8
0
 10
41.1289
 20
-64.7089
 11
41.7313
 21
-64.586
  0
LINE
  8
0
 10
41.7313
 20
-64.586
 11
42.3624
 21
-64.4034
  0
LINE
  8
0
 10
42.3624
 20
-64.4034
 11
43.0164
 21
-64.1549
  0
LINE
  8
0
 10
43.0164
 20
-64.1549
 11
43.6941
 21
-63.8345
  0
LINE
  8
0
 10
43.6941
 20
-63.8345
 11
44.3918
 21
-63.4362
  0
LINE
  8
0
 10
44.3918
 20
-63.4362
 11
45.1107
 21
-62.9538
  0
LINE
  8
0
 10
45.1107
 20
-62.9538
 11
45.8475
 21
-62.3814
  0
LINE
  8
0
 10
45.8475
 20
-62.3814
 11
46.5985
 21
-61.7126
  0
LINE
  8
0
 10
46.5985
 20
-61.7126
 11
47.3629
 21
-60.9417
  0
LINE
  8
0
 10
47.3629
 20
-60.9417
 11
48.1373
 21
-60.0623
  0
LINE
  8
0
 10
48.1373
 20
-60.0623
 11
48.9188
 21
-59.0684
  0
LINE
  8
0
 10
48.9188
 20
-59.0684
 11
49.7038
 21
-57.9539
  0
LINE
  8
0
 10
49.7038
 20
-57.9539
 11
50.4872
 21
-56.713
  0
LINE
  8
0
 10
50.4872
 20
-56.713
 11
51.2643
 21
-55.3392
  0
LINE
  8
0
 10
51.2643
 20
-55.3392
 11
52.0301
 21
-53.8267
  0
LINE
  8
0
 10
52.0301
 20
-53.8267
 11
52.7779
 21
-52.1693
  0
LINE
  8
0
 10
52.7779
 20
-52.1693
 11
53.4999
 21
-50.3609
  0
LINE
  8
0
 10
53.4999
 20
-50.3609
 11
54.1881
 21
-48.3955
  0
LINE
  8
0
 10
54.1881
 20
-48.3955
 11
54.8322
 21
-46.267
  0
LINE
  8
0
 10
54.8322
 20
-46.267
 11
55.4205
 21
-43.9692
  0
LINE
  8
0
 10
55.4205
 20
-43.9692
 11
55.9394
 21
-41.4963
  0
LINE
  8
0
 10
55.9394
 20
-41.4963
 11
56.3731
 21
-38.8418
  0
LINE
  8
0
 10
56.3731
 20
-38.8418
 11
56.701
 21
-36
  0
LINE
  8
0
 10
56.701
 20
-36
 11
60.0012
 21
0
  0
LINE
  8
0
 10
60.0012
 20
0
 11
56.701
 21
36
  0
LINE
  8
0
 10
56.701
 20
36
 11
56.3731
 21
38.8418
  0
LINE
  8
0
 10
56.3731
 20
38.8418
 11
55.9394
 21
41.4963
  0
LINE
  8
0
 10
55.9394
 20
41.4963
 11
55.4205
 21
43.9692
  0
LINE
  8
0
 10
55.4205
 20
43.9692
 11
54.8322
 21
46.267
  0
LINE
  8
0
 10
54.8322
 20
46.267
 11
54.1881
 21
48.3955
  0
LINE
  8
0
 10
54.1881
 20
48.3955
 11
53.4999
 21
50.3609
  0
LINE
  8
0
 10
53.4999
 20
50.3609
 11
52.7779
 21
52.1693
  0
LINE
  8
0
 10
52.7779
 20
52.1693
 11
52.0301
 21
53.8267
  0
LINE
  8
0
 10
52.0301
 20
53.8267
 11
51.2643
 21
55.3392
  0
LINE
  8
0
 10
51.2643
 20
55.3392
 11
50.4872
 21
56.713
  0
LINE
  8
0
 10
50.4872
 20
56.713
 11
49.7038
 21
57.9539
  0
LINE
  8
0
 10
49.7038
 20
57.9539
 11
48.9188
 21
59.0684
  0
LINE
  8
0
 10
48.9188
 20
59.0684
 11
48.1373
 21
60.0623
  0
LINE
  8
0
 10
48.1373
 20
60.0623
 11
47.3629
 21
60.9417
  0
LINE
  8
0
 10
47.3629
 20
60.9417
 11
46.5985
 21
61.7126
  0
LINE
  8
0
 10
46.5985
 20
61.7126
 11
45.8475
 21
62.3814
  0
LINE
  8
0
 10
45.8475
 20
62.3814
 11
45.1107
 21
62.9538
  0
LINE
  8
0
 10
45.1107
 20
62.9538
 11
44.3918
 21
63.4362
  0
LINE
  8
0
 10
44.3918
 20
63.4362
 11
43.6941
 21
63.8345
  0
LINE
  8
0
 10
43.6941
 20
63.8345
 11
43.0164
 21
64.1549
  0
LINE
  8
0
 10
43.0164
 20
64.1549
 11
42.3624
 21
64.4034
  0
LINE
  8
0
 10
42.3624
 20
64.4034
 11
41.7313
 21
64.586
  0
LINE
  8
0
 10
41.7313
 20
64.586
 11
41.1289
 21
64.7089
  0
LINE
  8
0
 10
41.1289
 20
64.7089
 11
40.5434
 21
64.7783
  0
LINE
  8
0
 10
40.5434
 20
64.7783
 11
40
 21
64.8
  0
LINE
  8
0
 10
40
 20
64.8
 11
38.1658
 21
64.7783
  0
LINE
  8
0
 10
38.1658
 20
64.7783
 11
36.3534
 21
64.7089
  0
LINE
  8
0
 10
36.3534
 20
64.7089
 11
34.5653
 21
64.586
  0
LINE
  8
0
 10
34.5653
 20
64.586
 11
32.8042
 21
64.4034
  0
LINE
  8
0
 10
32.8042
 20
64.4034
 11
31.0727
 21
64.1549
  0
LINE
  8
0
 10
31.0727
 20
64.1549
 11
29.3734
 21
63.8345
  0
LINE
  8
0
 10
29.3734
 20
63.8345
 11
27.7089
 21
63.4362
  0
LINE
  8
0
 10
27.7089
 20
63.4362
 11
26.0819
 21
62.9538
  0
LINE
  8
0
 10
26.0819
 20
62.9538
 11
24.495
 21
62.3814
  0
LINE
  8
0
 10
24.495
 20
62.3814
 11
22.9508
 21
61.7126
  0
LINE
  8
0
 10
22.9508
 20
61.7126
 11
21.452
 21
60.9417
  0
LINE
  8
0
 10
21.452
 20
60.9417
 11
20.0011
 21
60.0623
  0
LINE
  8
0
 10
20.0011
 20
60.0623
 11
18.6008
 21
59.0684
  0
LINE
  8
0
 10
18.6008
 20
59.0684
 11
17.2537
 21
57.9539
  0
LINE
  8
0
 10
17.2537
 20
57.9539
 11
15.9624
 21
56.713
  0
LINE
  8
0
 10
15.9624
 20
56.713
 11
14.7296
 21
55.3392
  0
LINE
  8
0
 10
14.7296
 20
55.3392
 11
13.5578
 21
53.8267
  0
LINE
  8
0
 10
13.5578
 20
53.8267
 11
12.4498
 21
52.1693
  0
LINE
  8
0
 10
12.4498
 20
52.1693
 11
11.4081
 21
50.3609
  0
LINE
  8
0
 10
11.4081
 20
50.3609
 11
10.4353
 21
48.3955
  0
LINE
  8
0
 10
10.4353
 20
48.3955
 11
9.53409
 21
46.267
  0
LINE
  8
0
 10
9.53409
 20
46.267
 11
8.70709
 21
43.9692
  0
LINE
  8
0
 10
8.70709
 20
43.9692
 11
7.95691
 21
41.4963
  0
LINE
  8
0
 10
7.95691
 20
41.4963
 11
7.28618
 21
38.8418
  0
LINE
  8
0
 10
7.28618
 20
38.8418
 11
6.70004
 21
36
  0
LINE
  8
0
 10
6.70004
 20
36
 11
4.57764e-05
 21
0
  0
LINE
  8
0
 10
4.57764e-05
 20
0
 11
6.70004
 21
-36
  0
LINE
  8
0
 10
6.70004
 20
-36
 11
7.28618
 21
-38.8418
  0
LINE
  8
0
 10
7.28618
 20
-38.8418
 11
7.95691
 21
-41.4963
  0
LINE
  8
0
 10
7.95691
 20
-41.4963
 11
8.70709
 21
-43.9692
  0
LINE
  8
0
 10
8.70709
 20
-43.9692
 11
9.53409
 21
-46.267
  0
LINE
  8
0
 10
9.53409
 20
-46.267
 11
10.4353
 21
-48.3955
  0
LINE
  8
0
 10
10.4353
 20
-48.3955
 11
11.4081
 21
-50.3609
  0
LINE
  8
0
 10
11.4081
 20
-50.3609
 11
12.4498
 21
-52.1693
  0
LINE
  8
0
 10
12.4498
 20
-52.1693
 11
13.5578
 21
-53.8267
  0
LINE
  8
0
 10
13.5578
 20
-53.8267
 11
14.7296
 21
-55.3392
  0
LINE
  8
0
 10
14.7296
 20
-55.3392
 11
15.9624
 21
-56.713
  0
LINE
  8
0
 10
15.9624
 20
-56.713
 11
17.2537
 21
-57.9539
  0
LINE
  8
0
 10
17.2537
 20
-57.9539
 11
18.6008
 21
-59.0684
  0
LINE
  8
0
 10
18.6008
 20
-59.0684
 11
20.0011
 21
-60.0623
  0
LINE
  8
0
 10
20.0011
 20
-60.0623
 11
21.452
 21
-60.9417
  0
LINE
  8
0
 10
21.452
 20
-60.9417
 11
22.9508
 21
-61.7126
  0
LINE
  8
0
 10
22.9508
 20
-61.7126
 11
24.495
 21
-62.3814
  0
LINE
  8
0
 10
24.495
 20
-62.3814
 11
26.0819
 21
-62.9538
  0
LINE
  8
0
 10
26.0819
 20
-62.9538
 11
27.7089
 21
-63.4362
  0
LINE
  8
0
 10
27.7089
 20
-63.4362
 11
29.3734
 21
-63.8345
  0
LINE
  8
0
 10
29.3734
 20
-63.8345
 11
31.0727
 21
-64.1549
  0
LINE
  8
0
 10
31.0727
 20
-64.1549
 11
32.8042
 21
-64.4034
  0
LINE
  8
0
 10
32.8042
 20
-64.4034
 11
34.5653
 21
-64.586
  0
LINE
  8
0
 10
34.5653
 20
-64.586
 11
36.3534
 21
-64.7089
  0
LINE
  8
0
 10
36.3534
 20
-64.7089
 11
38.1658
 21
-64.7783
  0
LINE
  8
0
 10
38.1658
 20
-64.7783
 11
40
 21
-64.8
  0
LINE
  8
0
 10
40
 20
-64.8
 11
40.5434
 21
-64.7783
  0
ENDSEC
  0
SECTION
  2
OBJECTS
  0
DICTIONARY
  0
ENDSEC
  0
EOF
