  0
SECTION
  2
BLOCKS
  0
ENDSEC
  0
SECTION
  2
ENTITIES
  0
LINE
  8
0
 10
-162.5
 20
0
 11
-161.613
 21
-1.88
  0
LINE
  8
0
 10
-161.613
 20
-1.88
 11
-158.966
 21
-3.73035
  0
LINE
  8
0
 10
-158.966
 20
-3.73035
 11
-154.6
 21
-5.52187
  0
LINE
  8
0
 10
-154.6
 20
-5.52187
 11
-148.585
 21
-7.22631
  0
LINE
  8
0
 10
-148.585
 20
-7.22631
 11
-141.014
 21
-8.81678
  0
LINE
  8
0
 10
-141.014
 20
-8.81678
 11
-132.009
 21
-10.2682
  0
LINE
  8
0
 10
-132.009
 20
-10.2682
 11
-121.71
 21
-11.5577
  0
LINE
  8
0
 10
-121.71
 20
-11.5577
 11
-110.281
 21
-12.6649
  0
LINE
  8
0
 10
-110.281
 20
-12.6649
 11
-97.9002
 21
-13.5724
  0
LINE
  8
0
 10
-97.9002
 20
-13.5724
 11
-84.7644
 21
-14.2658
  0
LINE
  8
0
 10
-84.7644
 20
-14.2658
 11
-71.0804
 21
-14.7343
  0
LINE
  8
0
 10
-71.0804
 20
-14.7343
 11
-57.0639
 21
-14.9704
  0
LINE
  8
0
 10
-57.0639
 20
-14.9704
 11
-53.532
 21
-14.9852
  0
LINE
  8
0
 10
-53.532
 20
-14.9852
 11
-50
 21
-15
  0
LINE
  8
0
 10
-50
 20
-15
 11
-46.468
 21
-14.9852
  0
LINE
  8
0
 10
-46.468
 20
-14.9852
 11
-42.9361
 21
-14.9704
  0
LINE
  8
0
 10
-42.9361
 20
-14.9704
 11
-28.9196
 21
-14.7343
  0
LINE
  8
0
 10
-28.9196
 20
-14.7343
 11
-15.2356
 21
-14.2658
  0
LINE
  8
0
 10
-15.2356
 20
-14.2658
 11
-2.09983
 21
-13.5724
  0
LINE
  8
0
 10
-2.09983
 20
-13.5724
 11
10.2805
 21
-12.6649
  0
LINE
  8
0
 10
10.2805
 20
-12.6649
 11
21.7102
 21
-11.5577
  0
LINE
  8
0
 10
21.7102
 20
-11.5577
 11
60.8551
 21
-7.27885
  0
LINE
  8
0
 10
60.8551
 20
-7.27885
 11
100
 21
-3
  0
LINE
  8
0
 10
100
 20
-3
 11
100
 21
-2
  0
LINE
  8
0
 10
100
 20
-2
 11
22
 21
-2
  0
LINE
  8
0
 10
22
 20
-2
 11
22
 21
-2
  0
LINE
  8
0
 10
22
 20
-2
 11
22
 21
2
  0
LINE
  8
0
 10
22
 20
2
 11
100
 21
2
  0
LINE
  8
0
 10
100
 20
2
 11
100
 21
3
  0
LINE
  8
0
 10
100
 20
3
 11
99.9602
 21
3.00435
  0
LINE
  8
0
 10
99.9602
 20
3.00435
 11
99.9762
 21
2.2
  0
LINE
  8
0
 10
99.9762
 20
2.2
 11
70
 21
2.2
  0
LINE
  8
0
 10
70
 20
2.2
 11
70
 21
6.27924
  0
LINE
  8
0
 10
70
 20
6.27924
 11
69.5538
 21
6.32801
  0
LINE
  8
0
 10
69.5538
 20
6.32801
 11
69.4283
 21
2.73443
  0
LINE
  8
0
 10
69.4283
 20
2.73443
 11
69.2561
 21
2.7388
  0
LINE
  8
0
 10
69.2561
 20
2.7388
 11
69.256
 21
2.7388
  0
LINE
  8
0
 10
69.256
 20
2.7388
 11
68.123
 21
2.76744
  0
LINE
  8
0
 10
68.123
 20
2.76744
 11
68.1229
 21
2.76744
  0
LINE
  8
0
 10
68.1229
 20
2.76744
 11
66.9899
 21
2.79617
  0
LINE
  8
0
 10
66.9899
 20
2.79617
 11
66.9898
 21
2.79617
  0
LINE
  8
0
 10
66.9898
 20
2.79617
 11
65.8567
 21
2.8249
  0
LINE
  8
0
 10
65.8567
 20
2.8249
 11
65.8566
 21
2.82491
  0
LINE
  8
0
 10
65.8566
 20
2.82491
 11
64.7237
 21
2.85372
  0
LINE
  8
0
 10
64.7237
 20
2.85372
 11
64.7236
 21
2.85372
  0
LINE
  8
0
 10
64.7236
 20
2.85372
 11
63.5907
 21
2.88243
  0
LINE
  8
0
 10
63.5907
 20
2.88243
 11
63.5906
 21
2.88243
  0
LINE
  8
0
 10
63.5906
 20
2.88243
 11
62.4576
 21
2.9111
  0
LINE
  8
0
 10
62.4576
 20
2.9111
 11
62.4575
 21
2.9111
  0
LINE
  8
0
 10
62.4575
 20
2.9111
 11
61.3244
 21
2.93985
  0
LINE
  8
0
 10
61.3244
 20
2.93985
 11
61.3243
 21
2.93985
  0
LINE
  8
0
 10
61.3243
 20
2.93985
 11
60.1913
 21
2.96858
  0
LINE
  8
0
 10
60.1913
 20
2.96858
 11
60.1912
 21
2.96859
  0
LINE
  8
0
 10
60.1912
 20
2.96859
 11
59.0582
 21
2.99732
  0
LINE
  8
0
 10
59.0582
 20
2.99732
 11
59.0581
 21
2.99732
  0
LINE
  8
0
 10
59.0581
 20
2.99732
 11
57.925
 21
3.02606
  0
LINE
  8
0
 10
57.925
 20
3.02606
 11
57.9249
 21
3.02606
  0
LINE
  8
0
 10
57.9249
 20
3.02606
 11
56.7919
 21
3.05479
  0
LINE
  8
0
 10
56.7919
 20
3.05479
 11
56.7918
 21
3.05479
  0
LINE
  8
0
 10
56.7918
 20
3.05479
 11
55.6586
 21
3.08355
  0
LINE
  8
0
 10
55.6586
 20
3.08355
 11
55.6585
 21
3.08355
  0
LINE
  8
0
 10
55.6585
 20
3.08355
 11
54.5252
 21
3.1122
  0
LINE
  8
0
 10
54.5252
 20
3.1122
 11
54.5251
 21
3.1122
  0
LINE
  8
0
 10
54.5251
 20
3.1122
 11
53.3921
 21
3.14097
  0
LINE
  8
0
 10
53.3921
 20
3.14097
 11
53.392
 21
3.14097
  0
LINE
  8
0
 10
53.392
 20
3.14097
 11
52.2587
 21
3.16978
  0
LINE
  8
0
 10
52.2587
 20
3.16978
 11
52.2586
 21
3.16978
  0
LINE
  8
0
 10
52.2586
 20
3.16978
 11
51.125
 21
3.19853
  0
LINE
  8
0
 10
51.125
 20
3.19853
 11
51.125
 21
3.19853
  0
LINE
  8
0
 10
51.125
 20
3.19853
 11
49.9914
 21
3.22725
  0
LINE
  8
0
 10
49.9914
 20
3.22725
 11
49.9913
 21
3.22725
  0
LINE
  8
0
 10
49.9913
 20
3.22725
 11
48.8577
 21
3.25594
  0
LINE
  8
0
 10
48.8577
 20
3.25594
 11
48.8576
 21
3.25594
  0
LINE
  8
0
 10
48.8576
 20
3.25594
 11
47.7242
 21
3.28479
  0
LINE
  8
0
 10
47.7242
 20
3.28479
 11
47.7241
 21
3.28479
  0
LINE
  8
0
 10
47.7241
 20
3.28479
 11
46.591
 21
3.31343
  0
LINE
  8
0
 10
46.591
 20
3.31343
 11
46.591
 21
3.31343
  0
LINE
  8
0
 10
46.591
 20
3.31343
 11
45.4584
 21
3.34214
  0
LINE
  8
0
 10
45.4584
 20
3.34214
 11
45.4583
 21
3.34214
  0
LINE
  8
0
 10
45.4583
 20
3.34214
 11
44.3258
 21
3.37086
  0
LINE
  8
0
 10
44.3258
 20
3.37086
 11
44.3257
 21
3.37086
  0
LINE
  8
0
 10
44.3257
 20
3.37086
 11
43.1931
 21
3.39956
  0
LINE
  8
0
 10
43.1931
 20
3.39956
 11
43.193
 21
3.39956
  0
LINE
  8
0
 10
43.193
 20
3.39956
 11
42.0602
 21
3.42837
  0
LINE
  8
0
 10
42.0602
 20
3.42837
 11
42.0602
 21
3.42837
  0
LINE
  8
0
 10
42.0602
 20
3.42837
 11
40.9271
 21
3.4571
  0
LINE
  8
0
 10
40.9271
 20
3.4571
 11
40.927
 21
3.45711
  0
LINE
  8
0
 10
40.927
 20
3.45711
 11
39.7936
 21
3.48577
  0
LINE
  8
0
 10
39.7936
 20
3.48577
 11
39.7935
 21
3.48577
  0
LINE
  8
0
 10
39.7935
 20
3.48577
 11
38.6598
 21
3.51455
  0
LINE
  8
0
 10
38.6598
 20
3.51455
 11
38.6597
 21
3.51455
  0
LINE
  8
0
 10
38.6597
 20
3.51455
 11
37.5257
 21
3.54332
  0
LINE
  8
0
 10
37.5257
 20
3.54332
 11
37.5257
 21
3.54332
  0
LINE
  8
0
 10
37.5257
 20
3.54332
 11
36.3913
 21
3.5721
  0
LINE
  8
0
 10
36.3913
 20
3.5721
 11
36.3913
 21
3.5721
  0
LINE
  8
0
 10
36.3913
 20
3.5721
 11
35.2565
 21
3.60082
  0
LINE
  8
0
 10
35.2565
 20
3.60082
 11
35.2565
 21
3.60082
  0
LINE
  8
0
 10
35.2565
 20
3.60082
 11
34.1215
 21
3.62962
  0
LINE
  8
0
 10
34.1215
 20
3.62962
 11
34.1214
 21
3.62962
  0
LINE
  8
0
 10
34.1214
 20
3.62962
 11
32.986
 21
3.65846
  0
LINE
  8
0
 10
32.986
 20
3.65846
 11
32.9859
 21
3.65846
  0
LINE
  8
0
 10
32.9859
 20
3.65846
 11
31.8501
 21
3.68725
  0
LINE
  8
0
 10
31.8501
 20
3.68725
 11
31.8501
 21
3.68725
  0
LINE
  8
0
 10
31.8501
 20
3.68725
 11
30.7137
 21
3.716
  0
LINE
  8
0
 10
30.7137
 20
3.716
 11
30.7137
 21
3.716
  0
LINE
  8
0
 10
30.7137
 20
3.716
 11
29.5769
 21
3.74485
  0
LINE
  8
0
 10
29.5769
 20
3.74485
 11
29.5769
 21
3.74485
  0
LINE
  8
0
 10
29.5769
 20
3.74485
 11
28.4401
 21
3.7737
  0
LINE
  8
0
 10
28.4401
 20
3.7737
 11
28.4401
 21
3.7737
  0
LINE
  8
0
 10
28.4401
 20
3.7737
 11
27.3034
 21
3.8025
  0
LINE
  8
0
 10
27.3034
 20
3.8025
 11
27.3034
 21
3.8025
  0
LINE
  8
0
 10
27.3034
 20
3.8025
 11
26.1676
 21
3.83134
  0
LINE
  8
0
 10
26.1676
 20
3.83134
 11
26.1675
 21
3.83134
  0
LINE
  8
0
 10
26.1675
 20
3.83134
 11
25.0325
 21
3.86007
  0
LINE
  8
0
 10
25.0325
 20
3.86007
 11
25.0324
 21
3.86007
  0
LINE
  8
0
 10
25.0324
 20
3.86007
 11
23.8987
 21
3.88882
  0
LINE
  8
0
 10
23.8987
 20
3.88882
 11
23.8986
 21
3.88882
  0
LINE
  8
0
 10
23.8986
 20
3.88882
 11
22.7666
 21
3.91753
  0
LINE
  8
0
 10
22.7666
 20
3.91753
 11
22.7665
 21
3.91753
  0
LINE
  8
0
 10
22.7665
 20
3.91753
 11
21.6361
 21
3.94612
  0
LINE
  8
0
 10
21.6361
 20
3.94612
 11
21.6361
 21
3.94612
  0
LINE
  8
0
 10
21.6361
 20
3.94612
 11
20.5077
 21
3.97481
  0
LINE
  8
0
 10
20.5077
 20
3.97481
 11
20.5077
 21
3.97481
  0
LINE
  8
0
 10
20.5077
 20
3.97481
 11
19.3818
 21
4.00336
  0
LINE
  8
0
 10
19.3818
 20
4.00336
 11
19.3818
 21
4.00336
  0
LINE
  8
0
 10
19.3818
 20
4.00336
 11
18.2586
 21
4.03198
  0
LINE
  8
0
 10
18.2586
 20
4.03198
 11
18.2586
 21
4.03198
  0
LINE
  8
0
 10
18.2586
 20
4.03198
 11
17.1383
 21
4.06123
  0
LINE
  8
0
 10
17.1383
 20
4.06123
 11
17.1383
 21
4.06123
  0
LINE
  8
0
 10
17.1383
 20
4.06123
 11
16.0213
 21
4.09112
  0
LINE
  8
0
 10
16.0213
 20
4.09112
 11
16.0213
 21
4.09112
  0
LINE
  8
0
 10
16.0213
 20
4.09112
 11
14.9076
 21
4.12196
  0
LINE
  8
0
 10
14.9076
 20
4.12196
 11
14.9075
 21
4.12196
  0
LINE
  8
0
 10
14.9075
 20
4.12196
 11
13.7976
 21
4.15373
  0
LINE
  8
0
 10
13.7976
 20
4.15373
 11
13.7976
 21
4.15374
  0
LINE
  8
0
 10
13.7976
 20
4.15374
 11
12.6921
 21
4.18752
  0
LINE
  8
0
 10
12.6921
 20
4.18752
 11
12.6921
 21
4.18753
  0
LINE
  8
0
 10
12.6921
 20
4.18753
 11
11.5918
 21
4.22472
  0
LINE
  8
0
 10
11.5918
 20
4.22472
 11
11.5918
 21
4.22472
  0
LINE
  8
0
 10
11.5918
 20
4.22472
 11
10.4984
 21
4.26632
  0
LINE
  8
0
 10
10.4984
 20
4.26632
 11
10.4984
 21
4.26632
  0
LINE
  8
0
 10
10.4984
 20
4.26632
 11
9.41422
 21
4.31361
  0
LINE
  8
0
 10
9.41422
 20
4.31361
 11
9.41421
 21
4.31361
  0
LINE
  8
0
 10
9.41421
 20
4.31361
 11
8.34235
 21
4.36817
  0
LINE
  8
0
 10
8.34235
 20
4.36817
 11
8.34233
 21
4.36817
  0
LINE
  8
0
 10
8.34233
 20
4.36817
 11
7.28664
 21
4.4319
  0
LINE
  8
0
 10
7.28664
 20
4.4319
 11
7.28662
 21
4.4319
  0
LINE
  8
0
 10
7.28662
 20
4.4319
 11
6.25282
 21
4.50653
  0
LINE
  8
0
 10
6.25282
 20
4.50653
 11
6.2528
 21
4.50653
  0
LINE
  8
0
 10
6.2528
 20
4.50653
 11
5.24969
 21
4.59334
  0
LINE
  8
0
 10
5.24969
 20
4.59334
 11
5.24966
 21
4.59334
  0
LINE
  8
0
 10
5.24966
 20
4.59334
 11
4.28506
 21
4.69532
  0
LINE
  8
0
 10
4.28506
 20
4.69532
 11
4.28502
 21
4.69533
  0
LINE
  8
0
 10
4.28502
 20
4.69533
 11
3.36884
 21
4.81545
  0
LINE
  8
0
 10
3.36884
 20
4.81545
 11
3.36879
 21
4.81545
  0
LINE
  8
0
 10
3.36879
 20
4.81545
 11
2.57042
 21
4.94558
  0
LINE
  8
0
 10
2.57042
 20
4.94558
 11
2.57036
 21
4.94559
  0
LINE
  8
0
 10
2.57036
 20
4.94559
 11
1.91751
 21
5.07804
  0
LINE
  8
0
 10
1.91751
 20
5.07804
 11
1.91745
 21
5.07805
  0
LINE
  8
0
 10
1.91745
 20
5.07805
 11
1.39906
 21
5.20774
  0
LINE
  8
0
 10
1.39906
 20
5.20774
 11
1.399
 21
5.20775
  0
LINE
  8
0
 10
1.399
 20
5.20775
 11
0.997178
 21
5.3308
  0
LINE
  8
0
 10
0.997178
 20
5.3308
 11
0.997127
 21
5.33082
  0
LINE
  8
0
 10
0.997127
 20
5.33082
 11
0.687259
 21
5.44677
  0
LINE
  8
0
 10
0.687259
 20
5.44677
 11
0.687214
 21
5.44679
  0
LINE
  8
0
 10
0.687214
 20
5.44679
 11
0.440622
 21
5.56068
  0
LINE
  8
0
 10
0.440622
 20
5.56068
 11
0.440583
 21
5.5607
  0
LINE
  8
0
 10
0.440583
 20
5.5607
 11
0.250201
 21
5.67081
  0
LINE
  8
0
 10
0.250201
 20
5.67081
 11
0.250167
 21
5.67083
  0
LINE
  8
0
 10
0.250167
 20
5.67083
 11
0.121692
 21
5.76957
  0
LINE
  8
0
 10
0.121692
 20
5.76957
 11
0.121668
 21
5.76959
  0
LINE
  8
0
 10
0.121668
 20
5.76959
 11
0.0331429
 21
5.87272
  0
LINE
  8
0
 10
0.0331429
 20
5.87272
 11
0.0331245
 21
5.87274
  0
LINE
  8
0
 10
0.0331245
 20
5.87274
 11
0.00367971
 21
5.97155
  0
LINE
  8
0
 10
0.00367971
 20
5.97155
 11
0.00367312
 21
5.97157
  0
LINE
  8
0
 10
0.00367312
 20
5.97157
 11
0.00742979
 21
6.07644
  0
LINE
  8
0
 10
0.00742979
 20
6.07644
 11
0.00743069
 21
6.07646
  0
LINE
  8
0
 10
0.00743069
 20
6.07646
 11
0.0295847
 21
6.17911
  0
LINE
  8
0
 10
0.0295847
 20
6.17911
 11
0.0295904
 21
6.17913
  0
LINE
  8
0
 10
0.0295904
 20
6.17913
 11
0.0680129
 21
6.28086
  0
LINE
  8
0
 10
0.0680129
 20
6.28086
 11
0.0680233
 21
6.28088
  0
LINE
  8
0
 10
0.0680233
 20
6.28088
 11
0.0680233
 21
6.28088
  0
LINE
  8
0
 10
0.0680233
 20
6.28088
 11
0.12104
 21
6.38707
  0
LINE
  8
0
 10
0.12104
 20
6.38707
 11
0.121056
 21
6.3871
  0
LINE
  8
0
 10
0.121056
 20
6.3871
 11
0.190823
 21
6.49937
  0
LINE
  8
0
 10
0.190823
 20
6.49937
 11
0.190845
 21
6.4994
  0
LINE
  8
0
 10
0.190845
 20
6.4994
 11
0.282317
 21
6.62307
  0
LINE
  8
0
 10
0.282317
 20
6.62307
 11
0.282347
 21
6.62311
  0
LINE
  8
0
 10
0.282347
 20
6.62311
 11
0.400868
 21
6.7599
  0
LINE
  8
0
 10
0.400868
 20
6.7599
 11
0.40091
 21
6.75995
  0
LINE
  8
0
 10
0.40091
 20
6.75995
 11
0.553782
 21
6.91218
  0
LINE
  8
0
 10
0.553782
 20
6.91218
 11
0.55384
 21
6.91223
  0
LINE
  8
0
 10
0.55384
 20
6.91223
 11
0.751796
 21
7.08282
  0
LINE
  8
0
 10
0.751796
 20
7.08282
 11
0.751876
 21
7.08288
  0
LINE
  8
0
 10
0.751876
 20
7.08288
 11
1.00993
 21
7.27528
  0
LINE
  8
0
 10
1.00993
 20
7.27528
 11
1.01004
 21
7.27536
  0
LINE
  8
0
 10
1.01004
 20
7.27536
 11
1.34769
 21
7.49244
  0
LINE
  8
0
 10
1.34769
 20
7.49244
 11
1.34785
 21
7.49254
  0
LINE
  8
0
 10
1.34785
 20
7.49254
 11
1.78855
 21
7.7351
  0
LINE
  8
0
 10
1.78855
 20
7.7351
 11
1.78878
 21
7.73522
  0
LINE
  8
0
 10
1.78878
 20
7.73522
 11
2.35022
 21
7.99804
  0
LINE
  8
0
 10
2.35022
 20
7.99804
 11
2.35053
 21
7.99819
  0
LINE
  8
0
 10
2.35053
 20
7.99819
 11
3.0334
 21
8.26896
  0
LINE
  8
0
 10
3.0334
 20
8.26896
 11
3.03381
 21
8.26913
  0
LINE
  8
0
 10
3.03381
 20
8.26913
 11
3.82016
 21
8.5338
  0
LINE
  8
0
 10
3.82016
 20
8.5338
 11
3.82068
 21
8.53397
  0
LINE
  8
0
 10
3.82068
 20
8.53397
 11
4.68391
 21
8.78263
  0
LINE
  8
0
 10
4.68391
 20
8.78263
 11
4.68451
 21
8.78281
  0
LINE
  8
0
 10
4.68451
 20
8.78281
 11
5.60149
 21
9.01057
  0
LINE
  8
0
 10
5.60149
 20
9.01057
 11
5.60217
 21
9.01074
  0
LINE
  8
0
 10
5.60217
 20
9.01074
 11
6.5572
 21
9.216
  0
LINE
  8
0
 10
6.5572
 20
9.216
 11
6.55794
 21
9.21616
  0
LINE
  8
0
 10
6.55794
 20
9.21616
 11
7.54151
 21
9.39964
  0
LINE
  8
0
 10
7.54151
 20
9.39964
 11
7.54231
 21
9.39979
  0
LINE
  8
0
 10
7.54231
 20
9.39979
 11
8.54812
 21
9.56231
  0
LINE
  8
0
 10
8.54812
 20
9.56231
 11
8.54897
 21
9.56245
  0
LINE
  8
0
 10
8.54897
 20
9.56245
 11
9.57281
 21
9.70561
  0
LINE
  8
0
 10
9.57281
 20
9.70561
 11
9.5737
 21
9.70573
  0
LINE
  8
0
 10
9.5737
 20
9.70573
 11
10.612
 21
9.83144
  0
LINE
  8
0
 10
10.612
 20
9.83144
 11
10.613
 21
9.83156
  0
LINE
  8
0
 10
10.613
 20
9.83156
 11
11.6634
 21
9.94098
  0
LINE
  8
0
 10
11.6634
 20
9.94098
 11
11.6644
 21
9.94109
  0
LINE
  8
0
 10
11.6644
 20
9.94109
 11
12.7248
 21
10.0356
  0
LINE
  8
0
 10
12.7248
 20
10.0356
 11
12.7258
 21
10.0356
  0
LINE
  8
0
 10
12.7258
 20
10.0356
 11
13.7946
 21
10.1166
  0
LINE
  8
0
 10
13.7946
 20
10.1166
 11
13.7956
 21
10.1167
  0
LINE
  8
0
 10
13.7956
 20
10.1167
 11
14.8715
 21
10.1849
  0
LINE
  8
0
 10
14.8715
 20
10.1849
 11
14.8725
 21
10.185
  0
LINE
  8
0
 10
14.8725
 20
10.185
 11
15.9545
 21
10.2417
  0
LINE
  8
0
 10
15.9545
 20
10.2417
 11
15.9555
 21
10.2417
  0
LINE
  8
0
 10
15.9555
 20
10.2417
 11
17.0427
 21
10.2875
  0
LINE
  8
0
 10
17.0427
 20
10.2875
 11
17.0437
 21
10.2876
  0
LINE
  8
0
 10
17.0437
 20
10.2876
 11
18.1353
 21
10.3236
  0
LINE
  8
0
 10
18.1353
 20
10.3236
 11
18.1364
 21
10.3236
  0
LINE
  8
0
 10
18.1364
 20
10.3236
 11
19.2317
 21
10.3503
  0
LINE
  8
0
 10
19.2317
 20
10.3503
 11
19.2328
 21
10.3504
  0
LINE
  8
0
 10
19.2328
 20
10.3504
 11
20.3314
 21
10.3686
  0
LINE
  8
0
 10
20.3314
 20
10.3686
 11
20.3326
 21
10.3686
  0
LINE
  8
0
 10
20.3326
 20
10.3686
 11
21.4342
 21
10.3787
  0
LINE
  8
0
 10
21.4342
 20
10.3787
 11
21.4354
 21
10.3787
  0
LINE
  8
0
 10
21.4354
 20
10.3787
 11
22.5395
 21
10.3812
  0
LINE
  8
0
 10
22.5395
 20
10.3812
 11
22.5407
 21
10.3812
  0
LINE
  8
0
 10
22.5407
 20
10.3812
 11
23.6469
 21
10.3769
  0
LINE
  8
0
 10
23.6469
 20
10.3769
 11
23.6481
 21
10.3769
  0
LINE
  8
0
 10
23.6481
 20
10.3769
 11
24.7563
 21
10.366
  0
LINE
  8
0
 10
24.7563
 20
10.366
 11
24.7575
 21
10.366
  0
LINE
  8
0
 10
24.7575
 20
10.366
 11
25.8674
 21
10.3488
  0
LINE
  8
0
 10
25.8674
 20
10.3488
 11
25.8686
 21
10.3487
  0
LINE
  8
0
 10
25.8686
 20
10.3487
 11
26.9799
 21
10.3257
  0
LINE
  8
0
 10
26.9799
 20
10.3257
 11
26.9811
 21
10.3257
  0
LINE
  8
0
 10
26.9811
 20
10.3257
 11
28.0938
 21
10.2972
  0
LINE
  8
0
 10
28.0938
 20
10.2972
 11
28.095
 21
10.2972
  0
LINE
  8
0
 10
28.095
 20
10.2972
 11
29.2089
 21
10.2634
  0
LINE
  8
0
 10
29.2089
 20
10.2634
 11
29.2101
 21
10.2634
  0
LINE
  8
0
 10
29.2101
 20
10.2634
 11
30.325
 21
10.2247
  0
LINE
  8
0
 10
30.325
 20
10.2247
 11
30.3262
 21
10.2247
  0
LINE
  8
0
 10
30.3262
 20
10.2247
 11
31.442
 21
10.1814
  0
LINE
  8
0
 10
31.442
 20
10.1814
 11
31.4432
 21
10.1813
  0
LINE
  8
0
 10
31.4432
 20
10.1813
 11
32.5598
 21
10.1336
  0
LINE
  8
0
 10
32.5598
 20
10.1336
 11
32.561
 21
10.1336
  0
LINE
  8
0
 10
32.561
 20
10.1336
 11
33.6783
 21
10.0815
  0
LINE
  8
0
 10
33.6783
 20
10.0815
 11
33.6794
 21
10.0814
  0
LINE
  8
0
 10
33.6794
 20
10.0814
 11
34.7974
 21
10.0253
  0
LINE
  8
0
 10
34.7974
 20
10.0253
 11
34.7986
 21
10.0252
  0
LINE
  8
0
 10
34.7986
 20
10.0252
 11
35.917
 21
9.96535
  0
LINE
  8
0
 10
35.917
 20
9.96535
 11
35.9181
 21
9.96529
  0
LINE
  8
0
 10
35.9181
 20
9.96529
 11
36.6689
 21
9.92259
  0
LINE
  8
0
 10
36.6689
 20
9.92259
 11
21.7102
 21
11.5577
  0
LINE
  8
0
 10
21.7102
 20
11.5577
 11
10.2805
 21
12.6649
  0
LINE
  8
0
 10
10.2805
 20
12.6649
 11
-2.09983
 21
13.5724
  0
LINE
  8
0
 10
-2.09983
 20
13.5724
 11
-15.2356
 21
14.2658
  0
LINE
  8
0
 10
-15.2356
 20
14.2658
 11
-28.9196
 21
14.7343
  0
LINE
  8
0
 10
-28.9196
 20
14.7343
 11
-42.9361
 21
14.9704
  0
LINE
  8
0
 10
-42.9361
 20
14.9704
 11
-50
 21
15
  0
LINE
  8
0
 10
-50
 20
15
 11
-57.0639
 21
14.9704
  0
LINE
  8
0
 10
-57.0639
 20
14.9704
 11
-71.0804
 21
14.7343
  0
LINE
  8
0
 10
-71.0804
 20
14.7343
 11
-84.7644
 21
14.2658
  0
LINE
  8
0
 10
-84.7644
 20
14.2658
 11
-97.9002
 21
13.5724
  0
LINE
  8
0
 10
-97.9002
 20
13.5724
 11
-110.281
 21
12.6649
  0
LINE
  8
0
 10
-110.281
 20
12.6649
 11
-121.71
 21
11.5577
  0
LINE
  8
0
 10
-121.71
 20
11.5577
 11
-132.009
 21
10.2682
  0
LINE
  8
0
 10
-132.009
 20
10.2682
 11
-141.014
 21
8.81678
  0
LINE
  8
0
 10
-141.014
 20
8.81678
 11
-148.585
 21
7.22631
  0
LINE
  8
0
 10
-148.585
 20
7.22631
 11
-154.6
 21
5.52187
  0
LINE
  8
0
 10
-154.6
 20
5.52187
 11
-158.966
 21
3.73035
  0
LINE
  8
0
 10
-158.966
 20
3.73035
 11
-161.613
 21
1.88
  0
LINE
  8
0
 10
-161.613
 20
1.88
 11
-162.5
 21
0
  0
LINE
  8
0
 10
-49
 20
9
 11
-41
 21
9
  0
LINE
  8
0
 10
-41
 20
9
 11
-41
 21
-9
  0
LINE
  8
0
 10
-41
 20
-9
 11
-49
 21
-9
  0
LINE
  8
0
 10
-49
 20
-9
 11
-49
 21
9
  0
LINE
  8
0
 10
-40
 20
-9
 11
-40
 21
9
  0
LINE
  8
0
 10
-40
 20
9
 11
-32
 21
9
  0
LINE
  8
0
 10
-32
 20
9
 11
-32
 21
-9
  0
LINE
  8
0
 10
-32
 20
-9
 11
-40
 21
-9
  0
LINE
  8
0
 10
-31
 20
-6.75
 11
-31
 21
6.75
  0
LINE
  8
0
 10
-31
 20
6.75
 11
-25
 21
6.75
  0
LINE
  8
0
 10
-25
 20
6.75
 11
-25
 21
-6.75
  0
LINE
  8
0
 10
-25
 20
-6.75
 11
-31
 21
-6.75
  0
LINE
  8
0
 10
-24
 20
6.75
 11
-18
 21
6.75
  0
LINE
  8
0
 10
-18
 20
6.75
 11
-18
 21
-6.75
  0
LINE
  8
0
 10
-18
 20
-6.75
 11
-24
 21
-6.75
  0
LINE
  8
0
 10
-24
 20
-6.75
 11
-24
 21
6.75
  0
ENDSEC
  0
SECTION
  2
OBJECTS
  0
DICTIONARY
  0
ENDSEC
  0
EOF
