  0
SECTION
  2
BLOCKS
  0
ENDSEC
  0
SECTION
  2
ENTITIES
  0
LINE
  8
0
 10
99.6
 20
14
 11
69.5
 21
14
  0
LINE
  8
0
 10
69.5
 20
14
 11
69.5
 21
449.99
  0
LINE
  8
0
 10
69.5
 20
449.99
 11
66.255
 21
449.924
  0
LINE
  8
0
 10
66.255
 20
449.924
 11
62.5679
 21
449.684
  0
LINE
  8
0
 10
62.5679
 20
449.684
 11
58.9457
 21
449.257
  0
LINE
  8
0
 10
58.9457
 20
449.257
 11
55.3954
 21
448.623
  0
LINE
  8
0
 10
55.3954
 20
448.623
 11
51.9242
 21
447.76
  0
LINE
  8
0
 10
51.9242
 20
447.76
 11
48.5391
 21
446.648
  0
LINE
  8
0
 10
48.5391
 20
446.648
 11
45.2472
 21
445.265
  0
LINE
  8
0
 10
45.2472
 20
445.265
 11
42.0556
 21
443.59
  0
LINE
  8
0
 10
42.0556
 20
443.59
 11
38.9713
 21
441.602
  0
LINE
  8
0
 10
38.9713
 20
441.602
 11
36.0015
 21
439.28
  0
LINE
  8
0
 10
36.0015
 20
439.28
 11
33.1532
 21
436.603
  0
LINE
  8
0
 10
33.1532
 20
436.603
 11
30.4335
 21
433.549
  0
LINE
  8
0
 10
30.4335
 20
433.549
 11
27.8494
 21
430.099
  0
LINE
  8
0
 10
27.8494
 20
430.099
 11
25.4081
 21
426.229
  0
LINE
  8
0
 10
25.4081
 20
426.229
 11
23.1166
 21
421.92
  0
LINE
  8
0
 10
23.1166
 20
421.92
 11
20.982
 21
417.15
  0
LINE
  8
0
 10
20.982
 20
417.15
 11
19.0113
 21
411.898
  0
LINE
  8
0
 10
19.0113
 20
411.898
 11
17.2118
 21
406.143
  0
LINE
  8
0
 10
17.2118
 20
406.143
 11
15.5903
 21
399.864
  0
LINE
  8
0
 10
15.5903
 20
399.864
 11
14.1541
 21
393.04
  0
LINE
  8
0
 10
14.1541
 20
393.04
 11
12.9101
 21
385.649
  0
LINE
  8
0
 10
12.9101
 20
385.649
 11
11.8655
 21
377.671
  0
LINE
  8
0
 10
11.8655
 20
377.671
 11
11.0273
 21
369.084
  0
LINE
  8
0
 10
11.0273
 20
369.084
 11
10.4026
 21
359.868
  0
LINE
  8
0
 10
10.4026
 20
359.868
 11
10.0014
 21
350
  0
LINE
  8
0
 10
10.0014
 20
350
 11
0.00175476
 21
0
  0
LINE
  8
0
 10
0.00175476
 20
0
 11
100
 21
0
  0
LINE
  8
0
 10
100
 20
0
 11
99.6
 21
14
  0
LINE
  8
0
 10
90
 20
350
 11
89.6346
 21
359.868
  0
LINE
  8
0
 10
89.6346
 20
359.868
 11
89.1393
 21
369.084
  0
LINE
  8
0
 10
89.1393
 20
369.084
 11
88.5376
 21
377.671
  0
LINE
  8
0
 10
88.5376
 20
377.671
 11
87.8492
 21
385.649
  0
LINE
  8
0
 10
87.8492
 20
385.649
 11
87.0909
 21
393.04
  0
LINE
  8
0
 10
87.0909
 20
393.04
 11
86.2766
 21
399.864
  0
LINE
  8
0
 10
86.2766
 20
399.864
 11
85.4191
 21
406.143
  0
LINE
  8
0
 10
85.4191
 20
406.143
 11
84.5284
 21
411.898
  0
LINE
  8
0
 10
84.5284
 20
411.898
 11
83.6138
 21
417.15
  0
LINE
  8
0
 10
83.6138
 20
417.15
 11
82.6835
 21
421.92
  0
LINE
  8
0
 10
82.6835
 20
421.92
 11
81.744
 21
426.229
  0
LINE
  8
0
 10
81.744
 20
426.229
 11
80.8012
 21
430.099
  0
LINE
  8
0
 10
80.8012
 20
430.099
 11
79.8608
 21
433.549
  0
LINE
  8
0
 10
79.8608
 20
433.549
 11
78.9277
 21
436.603
  0
LINE
  8
0
 10
78.9277
 20
436.603
 11
78.0055
 21
439.28
  0
LINE
  8
0
 10
78.0055
 20
439.28
 11
77.097
 21
441.602
  0
LINE
  8
0
 10
77.097
 20
441.602
 11
76.2072
 21
443.59
  0
LINE
  8
0
 10
76.2072
 20
443.59
 11
75.3375
 21
445.265
  0
LINE
  8
0
 10
75.3375
 20
445.265
 11
74.4914
 21
446.648
  0
LINE
  8
0
 10
74.4914
 20
446.648
 11
73.6691
 21
447.76
  0
LINE
  8
0
 10
73.6691
 20
447.76
 11
72.875
 21
448.623
  0
LINE
  8
0
 10
72.875
 20
448.623
 11
72.108
 21
449.257
  0
LINE
  8
0
 10
72.108
 20
449.257
 11
71.3751
 21
449.684
  0
LINE
  8
0
 10
71.3751
 20
449.684
 11
70.6732
 21
449.924
  0
LINE
  8
0
 10
70.6732
 20
449.924
 11
70.5
 21
449.944
  0
LINE
  8
0
 10
70.5
 20
449.944
 11
70.5
 21
15
  0
LINE
  8
0
 10
70.5
 20
15
 11
99.5714
 21
15
  0
LINE
  8
0
 10
99.5714
 20
15
 11
90
 21
350
  0
ENDSEC
  0
SECTION
  2
OBJECTS
  0
DICTIONARY
  0
ENDSEC
  0
EOF
