  0
SECTION
  2
BLOCKS
  0
ENDSEC
  0
SECTION
  2
ENTITIES
  0
LINE
  8
0
 10
40.5434
 20
-107.964
 11
41.1289
 21
-107.848
  0
LINE
  8
0
 10
41.1289
 20
-107.848
 11
41.7313
 21
-107.643
  0
LINE
  8
0
 10
41.7313
 20
-107.643
 11
42.3624
 21
-107.339
  0
LINE
  8
0
 10
42.3624
 20
-107.339
 11
43.0164
 21
-106.925
  0
LINE
  8
0
 10
43.0164
 20
-106.925
 11
43.6941
 21
-106.391
  0
LINE
  8
0
 10
43.6941
 20
-106.391
 11
44.3918
 21
-105.727
  0
LINE
  8
0
 10
44.3918
 20
-105.727
 11
45.1107
 21
-104.923
  0
LINE
  8
0
 10
45.1107
 20
-104.923
 11
45.8475
 21
-103.969
  0
LINE
  8
0
 10
45.8475
 20
-103.969
 11
46.5985
 21
-102.854
  0
LINE
  8
0
 10
46.5985
 20
-102.854
 11
47.3629
 21
-101.569
  0
LINE
  8
0
 10
47.3629
 20
-101.569
 11
48.1373
 21
-100.104
  0
LINE
  8
0
 10
48.1373
 20
-100.104
 11
48.9188
 21
-98.4473
  0
LINE
  8
0
 10
48.9188
 20
-98.4473
 11
49.7038
 21
-96.5899
  0
LINE
  8
0
 10
49.7038
 20
-96.5899
 11
50.4872
 21
-94.5216
  0
LINE
  8
0
 10
50.4872
 20
-94.5216
 11
51.2643
 21
-92.232
  0
LINE
  8
0
 10
51.2643
 20
-92.232
 11
52.0301
 21
-89.7112
  0
LINE
  8
0
 10
52.0301
 20
-89.7112
 11
52.7779
 21
-86.9488
  0
LINE
  8
0
 10
52.7779
 20
-86.9488
 11
53.4999
 21
-83.9348
  0
LINE
  8
0
 10
53.4999
 20
-83.9348
 11
54.1881
 21
-80.6592
  0
LINE
  8
0
 10
54.1881
 20
-80.6592
 11
54.8322
 21
-77.1116
  0
LINE
  8
0
 10
54.8322
 20
-77.1116
 11
55.4205
 21
-73.2821
  0
LINE
  8
0
 10
55.4205
 20
-73.2821
 11
55.9394
 21
-69.1604
  0
LINE
  8
0
 10
55.9394
 20
-69.1604
 11
56.3731
 21
-64.7364
  0
LINE
  8
0
 10
56.3731
 20
-64.7364
 11
56.701
 21
-60
  0
LINE
  8
0
 10
56.701
 20
-60
 11
60.0012
 21
0
  0
LINE
  8
0
 10
60.0012
 20
0
 11
56.701
 21
60
  0
LINE
  8
0
 10
56.701
 20
60
 11
56.3731
 21
64.7364
  0
LINE
  8
0
 10
56.3731
 20
64.7364
 11
55.9394
 21
69.1604
  0
LINE
  8
0
 10
55.9394
 20
69.1604
 11
55.4205
 21
73.2821
  0
LINE
  8
0
 10
55.4205
 20
73.2821
 11
54.8322
 21
77.1116
  0
LINE
  8
0
 10
54.8322
 20
77.1116
 11
54.1881
 21
80.6592
  0
LINE
  8
0
 10
54.1881
 20
80.6592
 11
53.4999
 21
83.9348
  0
LINE
  8
0
 10
53.4999
 20
83.9348
 11
52.7779
 21
86.9488
  0
LINE
  8
0
 10
52.7779
 20
86.9488
 11
52.0301
 21
89.7112
  0
LINE
  8
0
 10
52.0301
 20
89.7112
 11
51.2643
 21
92.232
  0
LINE
  8
0
 10
51.2643
 20
92.232
 11
50.4872
 21
94.5216
  0
LINE
  8
0
 10
50.4872
 20
94.5216
 11
49.7038
 21
96.5899
  0
LINE
  8
0
 10
49.7038
 20
96.5899
 11
48.9188
 21
98.4473
  0
LINE
  8
0
 10
48.9188
 20
98.4473
 11
48.1373
 21
100.104
  0
LINE
  8
0
 10
48.1373
 20
100.104
 11
47.3629
 21
101.569
  0
LINE
  8
0
 10
47.3629
 20
101.569
 11
46.5985
 21
102.854
  0
LINE
  8
0
 10
46.5985
 20
102.854
 11
45.8475
 21
103.969
  0
LINE
  8
0
 10
45.8475
 20
103.969
 11
45.1107
 21
104.923
  0
LINE
  8
0
 10
45.1107
 20
104.923
 11
44.3918
 21
105.727
  0
LINE
  8
0
 10
44.3918
 20
105.727
 11
43.6941
 21
106.391
  0
LINE
  8
0
 10
43.6941
 20
106.391
 11
43.0164
 21
106.925
  0
LINE
  8
0
 10
43.0164
 20
106.925
 11
42.3624
 21
107.339
  0
LINE
  8
0
 10
42.3624
 20
107.339
 11
41.7313
 21
107.643
  0
LINE
  8
0
 10
41.7313
 20
107.643
 11
41.1289
 21
107.848
  0
LINE
  8
0
 10
41.1289
 20
107.848
 11
40.5434
 21
107.964
  0
LINE
  8
0
 10
40.5434
 20
107.964
 11
40
 21
108
  0
LINE
  8
0
 10
40
 20
108
 11
38.1658
 21
107.964
  0
LINE
  8
0
 10
38.1658
 20
107.964
 11
36.3534
 21
107.848
  0
LINE
  8
0
 10
36.3534
 20
107.848
 11
34.5653
 21
107.643
  0
LINE
  8
0
 10
34.5653
 20
107.643
 11
32.8042
 21
107.339
  0
LINE
  8
0
 10
32.8042
 20
107.339
 11
31.0727
 21
106.925
  0
LINE
  8
0
 10
31.0727
 20
106.925
 11
29.3734
 21
106.391
  0
LINE
  8
0
 10
29.3734
 20
106.391
 11
27.7089
 21
105.727
  0
LINE
  8
0
 10
27.7089
 20
105.727
 11
26.0819
 21
104.923
  0
LINE
  8
0
 10
26.0819
 20
104.923
 11
24.495
 21
103.969
  0
LINE
  8
0
 10
24.495
 20
103.969
 11
22.9508
 21
102.854
  0
LINE
  8
0
 10
22.9508
 20
102.854
 11
21.452
 21
101.569
  0
LINE
  8
0
 10
21.452
 20
101.569
 11
20.0011
 21
100.104
  0
LINE
  8
0
 10
20.0011
 20
100.104
 11
18.6008
 21
98.4473
  0
LINE
  8
0
 10
18.6008
 20
98.4473
 11
17.2537
 21
96.5899
  0
LINE
  8
0
 10
17.2537
 20
96.5899
 11
15.9624
 21
94.5216
  0
LINE
  8
0
 10
15.9624
 20
94.5216
 11
14.7296
 21
92.232
  0
LINE
  8
0
 10
14.7296
 20
92.232
 11
13.5578
 21
89.7112
  0
LINE
  8
0
 10
13.5578
 20
89.7112
 11
12.4498
 21
86.9488
  0
LINE
  8
0
 10
12.4498
 20
86.9488
 11
11.4081
 21
83.9348
  0
LINE
  8
0
 10
11.4081
 20
83.9348
 11
10.4353
 21
80.6592
  0
LINE
  8
0
 10
10.4353
 20
80.6592
 11
9.53409
 21
77.1116
  0
LINE
  8
0
 10
9.53409
 20
77.1116
 11
8.70709
 21
73.2821
  0
LINE
  8
0
 10
8.70709
 20
73.2821
 11
7.95691
 21
69.1604
  0
LINE
  8
0
 10
7.95691
 20
69.1604
 11
7.28618
 21
64.7364
  0
LINE
  8
0
 10
7.28618
 20
64.7364
 11
6.70004
 21
60
  0
LINE
  8
0
 10
6.70004
 20
60
 11
4.57764e-05
 21
0
  0
LINE
  8
0
 10
4.57764e-05
 20
0
 11
6.70004
 21
-60
  0
LINE
  8
0
 10
6.70004
 20
-60
 11
7.28618
 21
-64.7364
  0
LINE
  8
0
 10
7.28618
 20
-64.7364
 11
7.95691
 21
-69.1604
  0
LINE
  8
0
 10
7.95691
 20
-69.1604
 11
8.70709
 21
-73.2821
  0
LINE
  8
0
 10
8.70709
 20
-73.2821
 11
9.53409
 21
-77.1116
  0
LINE
  8
0
 10
9.53409
 20
-77.1116
 11
10.4353
 21
-80.6592
  0
LINE
  8
0
 10
10.4353
 20
-80.6592
 11
11.4081
 21
-83.9348
  0
LINE
  8
0
 10
11.4081
 20
-83.9348
 11
12.4498
 21
-86.9488
  0
LINE
  8
0
 10
12.4498
 20
-86.9488
 11
13.5578
 21
-89.7112
  0
LINE
  8
0
 10
13.5578
 20
-89.7112
 11
14.7296
 21
-92.232
  0
LINE
  8
0
 10
14.7296
 20
-92.232
 11
15.9624
 21
-94.5216
  0
LINE
  8
0
 10
15.9624
 20
-94.5216
 11
17.2537
 21
-96.5899
  0
LINE
  8
0
 10
17.2537
 20
-96.5899
 11
18.6008
 21
-98.4473
  0
LINE
  8
0
 10
18.6008
 20
-98.4473
 11
20.0011
 21
-100.104
  0
LINE
  8
0
 10
20.0011
 20
-100.104
 11
21.452
 21
-101.569
  0
LINE
  8
0
 10
21.452
 20
-101.569
 11
22.9508
 21
-102.854
  0
LINE
  8
0
 10
22.9508
 20
-102.854
 11
24.495
 21
-103.969
  0
LINE
  8
0
 10
24.495
 20
-103.969
 11
26.0819
 21
-104.923
  0
LINE
  8
0
 10
26.0819
 20
-104.923
 11
27.7089
 21
-105.727
  0
LINE
  8
0
 10
27.7089
 20
-105.727
 11
29.3734
 21
-106.391
  0
LINE
  8
0
 10
29.3734
 20
-106.391
 11
31.0727
 21
-106.925
  0
LINE
  8
0
 10
31.0727
 20
-106.925
 11
32.8042
 21
-107.339
  0
LINE
  8
0
 10
32.8042
 20
-107.339
 11
34.5653
 21
-107.643
  0
LINE
  8
0
 10
34.5653
 20
-107.643
 11
36.3534
 21
-107.848
  0
LINE
  8
0
 10
36.3534
 20
-107.848
 11
38.1658
 21
-107.964
  0
LINE
  8
0
 10
38.1658
 20
-107.964
 11
40
 21
-108
  0
LINE
  8
0
 10
40
 20
-108
 11
40.5434
 21
-107.964
  0
ENDSEC
  0
SECTION
  2
OBJECTS
  0
DICTIONARY
  0
ENDSEC
  0
EOF
